HIERARCHY
ROOT hip
{
  OFFSET -176.6 84.7781 25.4655
  CHANNELS 6 Xposition Yposition Zposition Zrotation Xrotation Yrotation
  JOINT abdomen
  {
    OFFSET 0 20.6881 -0.73152
    CHANNELS 3 Zrotation Xrotation Yrotation
    JOINT chest
    {
      OFFSET 0 11.7043 -0.48768
      CHANNELS 3 Zrotation Xrotation Yrotation
      JOINT neck
      {
        OFFSET 0 22.1894 -2.19456
        CHANNELS 3 Zrotation Xrotation Yrotation
        JOINT head
        {
          OFFSET -0.24384 7.07133 1.2192
          CHANNELS 3 Zrotation Xrotation Yrotation
          JOINT leftEye
          {
            OFFSET 4.14528 8.04674 8.04672
            CHANNELS 3 Zrotation Xrotation Yrotation
            End Site
            {
              OFFSET 1 0 0
            }
          }
          JOINT rightEye
          {
            OFFSET -3.6576 8.04674 8.04672
            CHANNELS 3 Zrotation Xrotation Yrotation
            End Site
            {
              OFFSET 1 0 0
            }
          }
        }
      }
      JOINT rCollar
      {
        OFFSET -2.68224 19.2634 -4.8768
        CHANNELS 3 Zrotation Xrotation Yrotation
        JOINT rShldr
        {
          OFFSET -8.77824 -1.95073 1.46304
          CHANNELS 3 Zrotation Xrotation Yrotation
          JOINT rForeArm
          {
            OFFSET -28.1742 -1.7115 0.48768
            CHANNELS 3 Zrotation Xrotation Yrotation
            JOINT rHand
            {
              OFFSET -22.5879 0.773209 7.07136
              CHANNELS 3 Zrotation Xrotation Yrotation
              JOINT rThumb1
              {
                OFFSET -1.2192 -0.487915 3.41376
                CHANNELS 3 Zrotation Xrotation Yrotation
                JOINT rThumb2
                {
                  OFFSET -3.37035 -0.52449 3.41376
                  CHANNELS 3 Zrotation Xrotation Yrotation
                  End Site
                  {
                    OFFSET -1.78271 -1.18214 1.43049
                  }
                }
              }
              JOINT rIndex1
              {
                OFFSET -7.75947 0.938293 5.60832
                CHANNELS 3 Zrotation Xrotation Yrotation
                JOINT rIndex2
                {
                  OFFSET -2.54057 -0.884171 1.56538
                  CHANNELS 3 Zrotation Xrotation Yrotation
                  End Site
                  {
                    OFFSET -1.62519 -0.234802 1.16502
                  }
                }
              }
              JOINT rMid1
              {
                OFFSET -8.24714 1.18213 3.41376
                CHANNELS 3 Zrotation Xrotation Yrotation
                JOINT rMid2
                {
                  OFFSET -3.10165 -0.590103 1.0647
                  CHANNELS 3 Zrotation Xrotation Yrotation
                  End Site
                  {
                    OFFSET -2.48547 -0.328903 0.83742
                  }
                }
              }
              JOINT rRing1
              {
                OFFSET -8.82822 0.546677 1.51678
                CHANNELS 3 Zrotation Xrotation Yrotation
                JOINT rRing2
                {
                  OFFSET -2.60934 -0.819778 -0.0198488
                  CHANNELS 3 Zrotation Xrotation Yrotation
                  End Site
                  {
                    OFFSET -2.33842 -0.294052 0.168128
                  }
                }
              }
              JOINT rPinky1
              {
                OFFSET -8.27202 -0.0477905 -0.4584
                CHANNELS 3 Zrotation Xrotation Yrotation
                JOINT rPinky2
                {
                  OFFSET -1.82734 -0.647385 -0.700984
                  CHANNELS 3 Zrotation Xrotation Yrotation
                  End Site
                  {
                    OFFSET -1.69225 -0.51767 -0.607171
                  }
                }
              }
            }
          }
        }
      }
      JOINT lCollar
      {
        OFFSET 2.68224 19.2634 -4.8768
        CHANNELS 3 Zrotation Xrotation Yrotation
        JOINT lShldr
        {
          OFFSET 8.77824 -1.95073 1.46304
          CHANNELS 3 Zrotation Xrotation Yrotation
          JOINT lForeArm
          {
            OFFSET 28.1742 -1.7115 0.48768
            CHANNELS 3 Zrotation Xrotation Yrotation
            JOINT lHand
            {
              OFFSET 22.5879 0.773209 7.07136
              CHANNELS 3 Zrotation Xrotation Yrotation
              JOINT lThumb1
              {
                OFFSET 1.2192 -0.487915 3.41376
                CHANNELS 3 Zrotation Xrotation Yrotation
                JOINT lThumb2
                {
                  OFFSET 3.37035 -0.52449 3.41376
                  CHANNELS 3 Zrotation Xrotation Yrotation
                  End Site
                  {
                    OFFSET 1.78271 -1.18214 1.43049
                  }
                }
              }
              JOINT lIndex1
              {
                OFFSET 7.75947 0.938293 5.60832
                CHANNELS 3 Zrotation Xrotation Yrotation
                JOINT lIndex2
                {
                  OFFSET 2.54057 -0.884171 1.56538
                  CHANNELS 3 Zrotation Xrotation Yrotation
                  End Site
                  {
                    OFFSET 1.62519 -0.234802 1.16502
                  }
                }
              }
              JOINT lMid1
              {
                OFFSET 8.24714 1.18213 3.41376
                CHANNELS 3 Zrotation Xrotation Yrotation
                JOINT lMid2
                {
                  OFFSET 3.10165 -0.590103 1.0647
                  CHANNELS 3 Zrotation Xrotation Yrotation
                  End Site
                  {
                    OFFSET 2.48547 -0.328903 0.83742
                  }
                }
              }
              JOINT lRing1
              {
                OFFSET 8.82822 0.546677 1.51678
                CHANNELS 3 Zrotation Xrotation Yrotation
                JOINT lRing2
                {
                  OFFSET 2.60934 -0.819778 -0.0198488
                  CHANNELS 3 Zrotation Xrotation Yrotation
                  End Site
                  {
                    OFFSET 2.33842 -0.294052 0.168128
                  }
                }
              }
              JOINT lPinky1
              {
                OFFSET 8.27202 -0.0477905 -0.4584
                CHANNELS 3 Zrotation Xrotation Yrotation
                JOINT lPinky2
                {
                  OFFSET 1.82734 -0.647385 -0.700984
                  CHANNELS 3 Zrotation Xrotation Yrotation
                  End Site
                  {
                    OFFSET 1.69225 -0.51767 -0.607171
                  }
                }
              }
            }
          }
        }
      }
    }
  }
  JOINT rButtock
  {
    OFFSET -8.77824 4.35084 1.2192
    CHANNELS 3 Zrotation Xrotation Yrotation
    JOINT rThigh
    {
      OFFSET 0 -1.70687 -2.19456
      CHANNELS 3 Zrotation Xrotation Yrotation
      JOINT rShin
      {
        OFFSET 0 -36.8199 0.73152
        CHANNELS 3 Zrotation Xrotation Yrotation
        JOINT rFoot
        {
          OFFSET 0.73152 -45.1104 -5.12064
          CHANNELS 3 Zrotation Xrotation Yrotation
          End Site
          {
            OFFSET -1.1221 -3.69964 12.103
          }
        }
      }
    }
  }
  JOINT lButtock
  {
    OFFSET 8.77824 4.35084 1.2192
    CHANNELS 3 Zrotation Xrotation Yrotation
    JOINT lThigh
    {
      OFFSET 0 -1.70687 -2.19456
      CHANNELS 3 Zrotation Xrotation Yrotation
      JOINT lShin
      {
        OFFSET 0 -36.8199 0.73152
        CHANNELS 3 Zrotation Xrotation Yrotation
        JOINT lFoot
        {
          OFFSET -0.73152 -45.1104 -5.12064
          CHANNELS 3 Zrotation Xrotation Yrotation
          End Site
          {
            OFFSET 1.1221 -3.69964 12.103
          }
        }
      }
    }
  }
}
MOTION
Frames:	4
Frame Time:	0.00833333
159.126 84.7658 37.9565 0.292818 -0.000579793 -0.00500383 -0.385198 -0.00168813 -0.0109959 -0.106234 -0.00256711 -0.0184049 2.48659e-015 -1.59028e-015 -1.30452e-016 7.45753e-015 3.18055e-015 -4.05334e-016 -0 0 0 -0 0 0 1.19139e-015 -4.65902e-018 9.93923e-017 2.82051e-014 1.11816e-016 -3.97569e-016 4.43041e-013 -1.33981e-013 -3.18055e-014 5.0722e-012 1.21731e-013 -2.67167e-013 1.19589e-011 -2.83712e-014 -6.45653e-013 2.06517e-011 -4.13472e-014 -1.10365e-012 1.19641e-011 -2.74323e-014 -6.48833e-013 7.73091 5.47488 0.417314 1.19588e-011 -2.88238e-014 -6.42472e-013 2.90554 0.965183 0.102902 1.1964e-011 -2.8128e-014 -6.44062e-013 10.2786 0.731801 0.0259123 1.19549e-011 -2.78299e-014 -6.3293e-013 2.22167 -0.733487 -0.20892 1.1941e-015 -5.04727e-018 -1.98785e-016 2.30982e-014 2.11209e-016 -1.98785e-015 4.41898e-013 1.32391e-013 -2.54444e-014 5.07268e-012 -1.33807e-013 -2.60805e-013 1.1965e-011 -8.46782e-015 -6.42472e-013 2.06664e-011 -1.90833e-014 -1.11876e-012 1.19589e-011 -7.55382e-015 -6.26569e-013 -7.73091 5.47488 -0.417314 1.19657e-011 -8.84592e-015 -6.45653e-013 -2.90554 0.965183 -0.102902 1.19595e-011 -8.15017e-015 -6.43267e-013 -10.2786 0.731801 -0.0259123 1.19718e-011 -5.56597e-015 -6.52014e-013 -2.22167 -0.733487 0.20892 -2.03217e-016 0 -3.88251e-019 0.221671 -2.58356 -0.0280814 -0.00748974 -0.872634 -0.0651414 -0.513133 3.45577 0.12935 2.03217e-016 0 3.88251e-019 -0.807754 -4.07085 0.0653905 0.0032556 1.82139 0.0244306 0.517689 2.24911 -0.105177 
155.264 82.8087 31.7526 -4.86391 10.4809 -22.1183 1.91128 -0.890139 -1.28413 0.777058 -0.27151 -0.394089 -2.00469 1.91693 -1.91886 4.20199 -4.98418 -2.89411 -0 0 0 -0 0 0 -1.06714e-013 -2.32865e-012 5.99122e-014 17.1585 9.56608 2.94726 -19.6209 -17.3462 15.1997 0.0148912 2.75261 0.38532 3.00048e-010 2.63622e-011 -4.61693e-010 5.14047e-010 4.58163e-011 -7.99426e-010 3.00054e-010 2.6362e-011 -4.617e-010 7.73091 5.47488 0.417314 3.00048e-010 2.636e-011 -4.61691e-010 2.90554 0.965183 0.102902 3.00056e-010 2.63604e-011 -4.61695e-010 10.2786 0.731801 0.0259123 3.00042e-010 2.63613e-011 -4.61685e-010 2.22167 -0.733487 -0.20892 -1.0669e-013 -2.32865e-012 5.96482e-014 -22.2966 7.71972 -2.63403 4.5722 -2.15135 -7.06117 -0.0711634 5.9523 -0.820628 1.04987e-010 8.47575e-011 8.68787e-010 1.97111e-010 1.41274e-010 1.49859e-009 1.04972e-010 8.47624e-011 8.6881e-010 -7.73091 5.47488 -0.417314 1.04988e-010 8.47576e-011 8.68785e-010 -2.90554 0.965183 -0.102902 1.04981e-010 8.47586e-011 8.68786e-010 -10.2786 0.731801 -0.0259123 1.04994e-010 8.47611e-011 8.68777e-010 -2.22167 -0.733487 0.20892 -2.03217e-016 0 -3.88251e-019 2.03973 -10.2796 0.807187 -0.0250795 5.79918 -0.0150575 -0.583473 3.21845 -3.40443 2.03217e-016 0 3.88251e-019 1.78937 -5.66194 -1.83706 -0.0211757 13.4103 -0.166128 0.708999 8.06179 -3.2499 
154.33 82.8633 31.5299 -2.18763 16.2482 -47.1281 4.27491 -1.83731 -2.64086 1.71379 -0.560869 -0.794167 -3.98281 3.93685 -3.9519 8.08298 -10.1966 -6.0249 -0 0 0 -0 0 0 -2.31226e-013 -5.08153e-012 1.32176e-013 34.0887 19.6439 6.40092 -29.5183 -31.566 35.7091 -0.010321 5.71947 0.803732 6.07565e-010 5.6309e-011 -9.67127e-010 1.04051e-009 9.78382e-011 -1.67451e-009 6.07572e-010 5.63076e-011 -9.67139e-010 7.73091 5.47488 0.417314 6.07566e-010 5.6305e-011 -9.67127e-010 2.90554 0.965183 0.102902 6.07576e-010 5.6305e-011 -9.67134e-010 10.2786 0.731801 0.0259123 6.07557e-010 5.63066e-011 -9.67126e-010 2.22167 -0.733487 -0.20892 -2.31175e-013 -5.08152e-012 1.31953e-013 -45.0608 15.898 -5.61043 8.86305 -4.33776 -14.6044 0.0429278 12.1716 -1.70866 1.83643e-010 1.99194e-010 1.87748e-009 3.51476e-010 3.33024e-010 3.23911e-009 1.83619e-010 1.99203e-010 1.87751e-009 -7.73091 5.47488 -0.417314 1.83643e-010 1.99195e-010 1.87748e-009 -2.90554 0.965183 -0.102902 1.83637e-010 1.99196e-010 1.87748e-009 -10.2786 0.731801 -0.0259123 1.83649e-010 1.99198e-010 1.87747e-009 -2.22167 -0.733487 0.20892 -2.03217e-016 0 -3.88251e-019 4.186 -18.456 1.75832 -0.056641 12.8557 0.0393136 -0.686711 2.9877 -7.13693 2.03217e-016 0 3.88251e-019 4.39125 -7.26283 -3.86983 0.0440875 25.552 -0.396303 1.63146 14.1586 -6.73345 
153.39 82.9209 31.293 3.49744 13.5323 -68.9958 6.38578 -2.66175 -3.83407 2.53306 -0.809253 -1.14556 -5.62795 5.72494 -5.7823 11.0579 -14.7974 -8.94856 -0 0 0 -0 0 0 -3.22526e-013 -6.98595e-012 1.79538e-013 48.1952 28.3732 9.92039 -29.5164 -35.8454 58.0877 -0.067378 8.25633 1.16672 8.76226e-010 7.91432e-011 -1.38379e-009 1.50084e-009 1.37532e-010 -2.39607e-009 8.76233e-010 7.91409e-011 -1.3838e-009 7.73091 5.47488 0.417314 8.76227e-010 7.91378e-011 -1.38379e-009 2.90554 0.965183 0.102902 8.7624e-010 7.91375e-011 -1.3838e-009 10.2786 0.731801 0.0259123 8.76216e-010 7.91395e-011 -1.38379e-009 2.22167 -0.733487 -0.20892 -3.22457e-013 -6.98594e-012 1.79342e-013 -64.6126 22.9548 -8.5086 12.1586 -6.06279 -21.2934 0.319835 17.8419 -2.5724 2.91031e-010 2.5429e-010 2.60765e-009 5.50001e-010 4.2386e-010 4.498e-009 2.90999e-010 2.54302e-010 2.60768e-009 -7.73091 5.47488 -0.417314 2.91032e-010 2.54291e-010 2.60765e-009 -2.90554 0.965183 -0.102902 2.91025e-010 2.54292e-010 2.60764e-009 -10.2786 0.731801 -0.0259123 2.91038e-010 2.54294e-010 2.60763e-009 -2.22167 -0.733487 0.20892 -2.03217e-016 0 -3.88251e-019 6.41303 -25.6498 2.70558 -0.0964257 19.1428 0.0903208 -0.812442 2.71495 -10.4673 2.03217e-016 0 3.88251e-019 6.66377 -8.80999 -5.68199 0.208951 36.5865 -0.664589 3.0978 19.4475 -10.0201 
